<svg xmlns:xlink="http://www.w3.org/1999/xlink" xmlns="http://www.w3.org/2000/svg" width="30" height="30" version="1.1" viewBox="0 0 20 20" x="0px" y="0px" class="ScSvg-sc-1hrsqw6-1 ihOSMR"><g fill="#FFFFFF"><path d="M17.1163 2H2.88371C2.64933 2 2.42456 2.09314 2.25883 2.25892C2.0931 2.4247 2 2.64955 2 2.884V17.116C2 17.604 2.39587 18 2.88371 18H10.5478V11.8253H8.45785V9.39067H10.5372V7.61333C10.5372 5.544 11.7981 4.41867 13.6415 4.41867C14.2679 4.42 14.8944 4.456 15.5168 4.52533V6.684H14.2399C13.2389 6.684 13.0457 7.15733 13.0457 7.85733V9.40133H15.4449L15.133 11.824H13.0457V18H17.1163C17.3507 18 17.5754 17.9069 17.7412 17.7411C17.9069 17.5753 18 17.3505 18 17.116V2.884C18 2.7678 17.9771 2.65274 17.9326 2.5454C17.8881 2.43806 17.8229 2.34055 17.7407 2.25845C17.6585 2.17634 17.5609 2.11125 17.4536 2.06691C17.3462 2.02256 17.2311 1.99983 17.115 2H17.1163Z" fill="#FFFFFF"></path></g></svg>