<svg xmlns:xlink="http://www.w3.org/1999/xlink" xmlns="http://www.w3.org/2000/svg" width="30" height="30" version="1.1" viewBox="0 0 20 20" x="0px" y="0px" class="ScSvg-sc-1hrsqw6-1 ihOSMR"><g fill="#FFFFFF"><path d="M16.1 2.693a.997.997 0 010 1.992.997.997 0 010-1.996h-.01l.01.004zm-.504 5.167c.37-.335.854-.52 1.358-.52.923.007 1.73.625 1.973 1.51a2.048 2.048 0 01-.926 2.3c.03.19.05.386.05.582 0 1.466-.85 2.833-2.41 3.85-.49.324-.36.22-1.63.822-1.27.603-5.48.966-8 0a8.42 8.42 0 01-1.63-.823c-1.55-1.01-2.41-2.38-2.41-3.85 0-.19.02-.39.05-.58-.62-.37-1-1.04-1-1.76-.01-1.12.91-2.04 2.04-2.05.5 0 .986.19 1.358.52 1.45-.93 3.345-1.46 5.365-1.5L11 2.511c.052-.17.23-.27.407-.23l3.16.75c.26-.6.857-1.02 1.55-1.02.93.005 1.685.76 1.68 1.687 0 .93-.75 1.684-1.685 1.69a1.691 1.691 0 01-1.685-1.68l-2.87-.675L10.5 6.37c1.92.077 3.713.6 5.103 1.5l-.007-.01zm-5.598 7.337c1.342 0 2.3-.295 2.907-.902a.347.347 0 00-.49-.49c-.473.47-1.268.7-2.416.7-1.15 0-1.95-.232-2.42-.7a.367.367 0 00-.25-.102c-.09 0-.18.036-.25.102a.338.338 0 000 .49c.6.607 1.56.902 2.9.902H10zM12.71 9.5a1.25 1.25 0 00.001 2.498 1.249 1.249 0 100-2.496V9.5zm-5.425 0a1.248 1.248 0 00.001 2.497c.687 0 1.245-.56 1.245-1.247 0-.69-.55-1.248-1.24-1.248L7.285 9.5z" fill="#FFFFFF"></path></g></svg>