<svg xmlns:xlink="http://www.w3.org/1999/xlink" xmlns="http://www.w3.org/2000/svg" width="30" height="30" version="1.1" viewBox="0 0 20 20" x="0px" y="0px" class="ScSvg-sc-1hrsqw6-1 ihOSMR"><g fill="#FFFFFF"><path d="M10.882 15.226s.326-.036.49-.214c.154-.165.15-.473.15-.473s-.02-1.45.65-1.66c.66-.21 1.508 1.39 2.407 2.01.67.47 1.19.36 1.19.36l2.4-.036s1.255-.077.66-1.066c-.05-.08-.35-.73-1.788-2.067-1.51-1.4-1.306-1.172.51-3.592 1.104-1.472 1.547-2.37 1.41-2.756-.134-.368-.947-.27-.947-.27l-2.707.015s-.2-.03-.35.06c-.146.087-.24.29-.24.29s-.43 1.14-1 2.11c-1.2 2.05-1.683 2.16-1.88 2.03-.46-.294-.343-1.19-.343-1.822 0-1.984.3-2.81-.584-3.025-.296-.072-.513-.117-1.265-.126-.965-.01-1.782.004-2.245.23-.31.15-.546.486-.4.506.18.024.583.11.797.4.28.38.267 1.225.267 1.225s.16 2.333-.373 2.62c-.363.2-.863-.205-1.94-2.06-.55-.95-.964-2-.964-2s-.08-.2-.225-.305c-.172-.125-.414-.166-.414-.166l-2.57.02s-.385.01-.53.18c-.123.15-.01.46-.01.46s2.016 4.71 4.296 7.082c2.09 2.18 4.463 2.04 4.463 2.04h1.085z" fill="#FFFFFF"></path></g></svg>