<svg width="92" height="92" viewBox="0 0 92 92" fill="none" xmlns="http://www.w3.org/2000/svg">
<path d="M22.3077 17.38C21.8854 17.7235 21.2645 17.6597 20.921 17.2373C20.5775 16.815 20.6414 16.1942 21.0637 15.8507C22.2082 14.9197 23.0321 13.881 24.0195 12.7655C26.7723 9.65569 30.9449 7.63325 34.9354 6.63081C41.7326 4.92337 46.8867 5.13402 53.5631 6.6248C58.2989 7.68225 61.8965 8.4308 66.0055 11.2809C66.6108 11.7007 67.1368 12.0493 67.5967 12.6312C67.7645 12.8436 67.9433 13.2842 68.2718 13.2664C70.525 13.1472 72.6379 12.1788 74.8856 11.9906C76.7192 11.8371 78.6215 11.9496 80.4034 11.4191C81.7413 11.0208 83.0499 11.3319 83.8232 12.553C84.5995 13.7787 85.4011 15.2597 85.5628 16.722C85.6434 17.4508 85.6632 18.2624 85.0084 18.7473C84.3861 19.2081 83.509 19.3369 82.8224 19.6923C83.6948 22.5191 83.055 26.1875 82.2109 28.9912C82.0681 29.4659 81.9254 29.8783 81.8137 30.1835C83.9148 32.8454 85.5688 37.4227 85.5688 40.9063C85.5688 42.8352 85.8913 44.8295 86.1466 46.9624C86.396 49.0466 86.575 51.234 86.1949 53.3348C85.2313 58.6597 83.3922 64.7626 80.3175 69.3967C78.6471 71.9144 76.408 74.1642 74.4072 76.1745L74.371 76.211C72.7739 77.8157 69.7103 80.4193 67.8062 81.7064C65.1587 83.496 62.5741 84.0441 60.0274 84.5841C59.3045 84.7374 58.5846 84.89 57.8672 85.0702C57.3392 85.2029 56.8037 84.8824 56.6711 84.3544C56.5384 83.8264 56.8589 83.2908 57.3869 83.1582C58.2429 82.9432 59.0478 82.7713 59.818 82.6069L59.8182 82.6068C62.2881 82.0795 64.4015 81.6283 66.7022 80.0731C68.4837 78.8689 71.4503 76.351 72.9736 74.8203C75.0105 72.7737 77.1209 70.6488 78.6748 68.3068C81.5389 63.9899 83.3139 58.1842 84.2549 52.9838C84.5784 51.1962 84.4365 49.2636 84.1891 47.1967C83.9476 45.1785 83.5974 42.9905 83.5974 40.9063C83.5974 37.7416 82.0047 33.3242 79.9504 31.0307C79.3341 30.3426 80.1106 29.1292 80.3232 28.423C81.0344 26.0602 81.7258 22.555 80.9175 20.2086C80.66 19.4611 80.8608 18.6839 81.4975 18.2011C81.973 17.8407 83.6723 17.5621 83.6033 16.9386C83.4994 15.9987 82.7063 13.5243 81.7543 13.2331C80.1812 12.7518 76.7673 13.8114 75.0501 13.9552C72.7824 14.145 70.6574 15.1144 68.3759 15.2351C67.5004 15.2814 66.9072 14.8222 66.5267 14.4215L66.493 14.386C65.9467 13.8106 65.473 13.3117 64.8036 12.8492C60.9319 10.1743 57.5958 9.54523 53.1335 8.54885C46.7361 7.12038 41.9384 6.90433 35.4157 8.54284C31.8113 9.44827 27.9863 11.2586 25.4957 14.0722C24.5915 15.0936 23.6151 16.3166 22.3077 17.38Z" fill="#FAFA19"/>
<path d="M6.63552 45.8056C7.91945 24.0511 25.6804 9.18914 44.2974 8.54297C56.4519 8.54297 64.7689 13.138 67.408 15.4355L81.1033 13.9277L83.4571 16.5124L81.1033 17.8048L78.1074 29.4359C80.0333 33.0975 83.4571 41.7131 83.4571 45.8056C83.4571 70.5755 65.0542 86.299 44.2974 86.0836C23.5406 85.8683 5.35159 67.56 6.63552 45.8056Z" fill="white"/>
<path fill-rule="evenodd" clip-rule="evenodd" d="M75.1565 14.0785C66.7932 15.1618 59.9505 16.495 58.5318 17.3181C57.7294 17.7836 57.3438 18.4929 57.3397 19.5114L57.3365 20.2801L55.78 20.4012C54.9237 20.468 53.8642 20.6738 53.4251 20.8586C52.339 21.3161 52.2857 21.3024 51.7406 20.4264C50.931 19.1252 50.2384 18.8501 47.7824 18.8543C45.3894 18.8584 40.9501 19.4444 38.0761 20.1359C37.038 20.3857 34.9327 20.8166 33.3976 21.0936C31.8625 21.3706 29.6887 21.7831 28.5669 22.0106C27.4451 22.2379 25.4688 22.5868 24.175 22.7862C20.4025 23.3673 19.9053 23.8202 20.4918 26.1431C20.6821 26.8963 20.8377 27.8079 20.8377 28.1685C20.8377 29.4457 21.9881 30.13 24.1655 30.1481L25.0243 30.1551L25.9145 32.023C27.4423 35.2289 30.5335 38.6784 32.9897 39.9182C36.9449 41.9148 41.0946 42.1306 45.4207 40.5648C47.5765 39.7845 49.0644 38.7822 50.7023 37.007C53.2813 34.2113 54.1227 31.1762 53.5877 26.5975L53.441 25.3422L54.2616 24.886C55.24 24.342 56.4852 24.0823 57.2277 24.2674C57.6414 24.3704 57.9877 24.8404 58.7261 26.3005C59.785 28.395 60.9336 29.674 63.4224 31.531C66.125 33.5472 69.0788 34.812 71.5228 34.9995C74.6434 35.2387 77.5116 33.1362 78.8571 30.5572C78.9896 30.3034 79.5193 28.5778 79.8428 27.6C80.4199 25.8568 80.8393 25.1547 80.8285 20.1359C80.8178 15.0965 80.8072 16.5918 80.2629 15.4281C79.4241 13.6345 79.148 13.5616 75.1565 14.0785ZM75.2731 17.4096C75.113 17.7909 74.5309 19.3501 73.9791 20.8748C73.4276 22.3996 72.1866 25.3029 71.2218 27.3268C69.5523 30.8279 69.4408 31.0009 68.9303 30.8864C68.2746 30.739 66.3275 29.5977 65.4932 28.8716L64.8806 28.3385L66.1244 25.5663C68.2323 20.8678 69.7919 17.8278 70.1747 17.671C70.5611 17.5128 74.5779 16.7637 75.1993 16.734C75.5278 16.7182 75.5351 16.7854 75.2731 17.4096ZM48.1274 24.6542C47.7674 26.1165 47.0752 28.2632 46.5893 29.425C45.1187 32.9416 43.5958 36.9366 43.5958 37.2778C43.5958 38.3267 39.366 38.6547 36.5749 37.8224L35.6728 37.5535L36.0008 36.9234C36.1812 36.5768 37.0393 34.5516 37.9076 32.4226C40.3143 26.5216 41.8372 22.8704 41.9295 22.7787C41.9753 22.7333 43.4054 22.4964 45.1075 22.2522C46.8094 22.0083 48.2462 21.7649 48.3001 21.7114C48.3537 21.6579 48.4843 21.6999 48.5899 21.8048C48.7031 21.9172 48.5124 23.0905 48.1274 24.6542Z" fill="black"/>
<path d="M56.9808 45.4621C59.0663 45.2148 63.2758 44.3312 64.8271 43.815C65.5463 43.5757 66.2291 43.3762 66.3445 43.372C66.8056 43.3545 67.4301 43.7895 67.6242 44.2628C68.1212 45.4768 66.4805 46.8113 65.5196 47.138C63.7009 47.7564 61.4375 48.2527 58.3757 48.7047C56.1841 49.0283 53.2053 48.9786 50.9414 48.5808C49.7733 48.3754 49.5785 48.5426 49.0947 48.958C49.0662 48.9824 49.0368 49.0076 49.0061 49.0338C48.3629 49.5808 47.9661 49.6143 47.6918 49.0338C47.0347 47.6429 47.224 45.554 48.349 45.0143C49.3347 44.5415 49.7468 44.6858 49.7468 45.5558C50.2232 45.8151 50.6467 45.8408 52.8979 45.7465C54.3284 45.6868 56.1656 45.5587 56.9808 45.4621Z" fill="black"/>
<path fill-rule="evenodd" clip-rule="evenodd" d="M39.5062 7.63053C36.1427 8.25835 30.7565 10.0974 27.5018 11.7292C21.2533 14.8623 14.9481 20.3412 10.8823 26.1707C9.57588 28.0438 8.66343 29.8962 7.65818 32.7149C7.19916 34.002 6.54851 35.7024 6.21221 36.4939C4.50313 40.5156 4.16748 45.3592 5.13569 52.034C5.42678 54.0412 6.63937 58.9844 7.33243 60.9894C8.51961 64.4235 11.1754 69.7918 12.7103 71.8611C14.7156 74.5638 18.0528 77.7626 20.7861 79.6016C22.4971 80.7527 28.9286 84.0388 30.7953 84.7156C34.5357 86.0717 41.4454 87.3999 44.76 87.3999C47.1983 87.3999 51.4641 86.8618 54.0917 86.2226C55.2758 85.9345 56.7291 85.6321 57.3212 85.5501C59.7475 85.2149 63.9601 83.2611 67.9815 80.6065C69.8682 79.361 74.3319 75.3596 76.517 72.955C77.9169 71.4144 79.63 68.5571 81.0413 65.4092C83.2245 60.5397 84.121 57.3058 84.1247 54.2872C84.1258 53.5654 84.2711 52.0131 84.4481 50.8377C85.4904 43.9127 83.9753 36.5189 80.4439 31.2967L79.6094 30.0629L80.2568 28.1283C81.022 25.8408 81.5398 22.6522 81.5415 20.2149L81.5428 18.4632L82.2322 18.3252C83.1563 18.14 83.9111 17.3951 83.9111 16.6683C83.9111 16.0291 82.2554 13.6454 81.4397 13.1103C80.719 12.6375 75.2768 13.1282 70.1141 14.1318L67.8355 14.5747L66.3463 13.4913C63.5861 11.4837 59.0361 9.52433 55.0235 8.61559C48.7345 7.19136 43.6036 6.8656 39.5062 7.63053ZM47.3008 10.3319C50.162 10.6866 53.1691 11.2795 55.5988 11.9679C58.9853 12.9273 63.565 15.0099 63.565 15.5905C63.565 15.7361 63.0806 16.0267 62.4885 16.2365C61.8964 16.446 60.976 16.8134 60.4431 17.0525L59.4742 17.4871L60.5006 17.6499C61.8671 17.8664 66.9605 17.4856 73.3658 16.6884C76.2403 16.3305 78.8231 16.0377 79.1053 16.0377C79.7248 16.0377 80.032 16.6567 79.5474 16.9281C78.7053 17.4 78.3132 18.5052 78.3132 20.4076C78.3132 22.7061 77.6361 26.7489 76.942 28.5959C75.8769 31.4293 74.9328 32.41 72.5102 33.1996C70.0887 33.9889 70.1767 34.9069 72.673 34.8961C74.3924 34.8885 76.0265 34.2208 77.3237 32.9956C77.786 32.559 78.1875 32.2272 78.2161 32.2585C78.366 32.4221 79.5282 35.354 80.0759 36.9505C82.0044 42.5713 82.2479 48.3094 80.8747 55.7709C80.3177 58.7973 79.7906 60.5054 78.6 63.1454C76.1062 68.6741 75.1651 70.0063 70.8864 74.0632C66.6539 78.0761 63.3811 80.1277 57.4289 82.4988C54.1806 83.7928 52.2526 84.0522 45.9102 84.0485C41.1326 84.0455 40.8471 84.0209 37.8034 83.3502C31.0864 81.8699 28.3761 80.7458 23.0967 77.2495C18.0005 73.8748 15.07 70.4864 12.4569 64.9476C10.6793 61.1798 9.94836 59.1636 9.08822 55.6562C8.09697 51.6136 7.83258 49.4288 7.816 45.1431C7.80416 42.0703 7.86982 41.3377 8.29914 39.7636C9.20729 36.4329 11.6258 30.8071 13.0946 28.6091C15.9368 24.3554 21.145 19.0427 25.1561 16.3055C27.0268 15.0287 31.3525 12.7941 33.3559 12.0694C38.9484 10.0465 41.966 9.6705 47.3008 10.3319Z" fill="#323239"/>
</svg>
